# xmcd
#
# Track frame offsets:
#	150
#	10952
#	25335
#	40055
#	53827
#	75657
#	91882
#	110755
#	121635
#	137272
#	152687
#	172535
#
# Disc length: 2564 seconds
#
# Revision: 1
# Processed by: cddbd v1.4PL0 Copyright (c) Steve Scherf et al.
# Submitted via: EasyCDDAExtractor 5.1.0
#
DISCID=7f0a020c
DTITLE=Elizabeth Cook - Hey Y'all
DYEAR=1900
DGENRE=country
TTITLE0=Stupid Things
TTITLE1=Rainbows at Midnight
TTITLE2=Mama You Wanted To Be a Singer Too
TTITLE3=Dolly
TTITLE4=I'm Not Lisa
TTITLE5=Everyday Sunshine
TTITLE6=You Move Too Fast
TTITLE7=Demon
TTITLE8=Blue Shades
TTITLE9=Don't Bother Me
TTITLE10=God's Got a Plan
TTITLE11=Ocala
EXTD=
EXTT0=
EXTT1=
EXTT2=
EXTT3=
EXTT4=
EXTT5=
EXTT6=
EXTT7=
EXTT8=
EXTT9=
EXTT10=
EXTT11=
PLAYORDER=
